<svg xmlns="http://www.w3.org/2000/svg" xmlns:xlink="http://www.w3.org/1999/xlink" viewBox="0 0 239.69 54"><defs><style>.cls-1{fill:#e47057;}.cls-2{fill:url(#Dégradé_sans_nom_134);}.cls-3{fill:url(#Dégradé_sans_nom_132);}.cls-4{fill:url(#Dégradé_sans_nom_20);}</style><linearGradient id="Dégradé_sans_nom_134" x1="219.75" y1="37.96" x2="226.97" y2="28.67" gradientUnits="userSpaceOnUse"><stop offset="0" stop-color="#434a9a"/><stop offset="0" stop-color="#5f3f92"/><stop offset="1" stop-color="#e47057"/></linearGradient><linearGradient id="Dégradé_sans_nom_132" x1="209.71" y1="34.46" x2="233.93" y2="34.46" gradientUnits="userSpaceOnUse"><stop offset="0" stop-color="#5f3f92"/><stop offset="1" stop-color="#e47057"/></linearGradient><linearGradient id="Dégradé_sans_nom_20" x1="213.33" y1="29.98" x2="234.02" y2="46" gradientUnits="userSpaceOnUse"><stop offset="0" stop-color="#e47057"/><stop offset="1" stop-color="#5f3f92"/></linearGradient></defs><g id="Calque_2" data-name="Calque 2"><g id="Calque_1-2" data-name="Calque 1"><path class="cls-1" d="M2.3,2.88a2.19,2.19,0,0,1,1.55.65,2.08,2.08,0,0,1,.69,1.58V51.05a2.35,2.35,0,0,1-.76,1.58,2.21,2.21,0,0,1-1.55.65,2.14,2.14,0,0,1-1.62-.65A2.2,2.2,0,0,1,0,51.05V5.11A2.16,2.16,0,0,1,.65,3.53,2.24,2.24,0,0,1,2.3,2.88ZM1.94,25.42h34.2l-.07,4.17H1.66ZM36.07,2.88a2.14,2.14,0,0,1,1.62.65,2.2,2.2,0,0,1,.61,1.58V51.05a2.45,2.45,0,0,1-.68,1.58,2.25,2.25,0,0,1-3.85-1.58V5.11a2.11,2.11,0,0,1,.68-1.58A2.3,2.3,0,0,1,36.07,2.88Z"/><path class="cls-1" d="M80.64,16.49a2,2,0,0,1,1.55.65,2.25,2.25,0,0,1,.61,1.58v32.4a2.22,2.22,0,0,1-2.16,2.16,2,2,0,0,1-1.59-.65,2.2,2.2,0,0,1-.57-1.51V42.55L79.7,42a8.69,8.69,0,0,1-1.11,4.1A15.16,15.16,0,0,1,75.53,50,15.57,15.57,0,0,1,71,52.88,14.38,14.38,0,0,1,65.23,54a15.51,15.51,0,0,1-8.68-2.52,17.31,17.31,0,0,1-6-6.91,21.7,21.7,0,0,1-2.2-9.87,21.12,21.12,0,0,1,2.23-9.9,17.39,17.39,0,0,1,6.05-6.73A16.15,16.15,0,0,1,71,16.7a15,15,0,0,1,4.72,3,14.07,14.07,0,0,1,3.17,4.28,11.46,11.46,0,0,1,1.15,5l-1.51-1.08V18.72a2.31,2.31,0,0,1,.57-1.58A2,2,0,0,1,80.64,16.49ZM65.66,50a11.86,11.86,0,0,0,6.77-2,13.48,13.48,0,0,0,4.64-5.47,17.7,17.7,0,0,0,1.7-7.82,16.82,16.82,0,0,0-1.7-7.63,14,14,0,0,0-4.64-5.4,11.74,11.74,0,0,0-6.77-2,12,12,0,0,0-6.73,1.94,13.34,13.34,0,0,0-4.68,5.33,17.12,17.12,0,0,0-1.69,7.77,18.1,18.1,0,0,0,1.65,7.82A13.28,13.28,0,0,0,58.86,48,12,12,0,0,0,65.66,50Z"/><path class="cls-1" d="M98.85,51.12a2.06,2.06,0,0,1-.64,1.51,2.11,2.11,0,0,1-1.52.65,2,2,0,0,1-1.54-.65,2.12,2.12,0,0,1-.62-1.51v-49A2.07,2.07,0,0,1,95.18.65,2.08,2.08,0,0,1,96.69,0a2,2,0,0,1,1.55.65,2.11,2.11,0,0,1,.61,1.51Z"/><path class="cls-1" d="M115.41,51.12a2.06,2.06,0,0,1-.64,1.51,2.11,2.11,0,0,1-1.52.65,2,2,0,0,1-1.54-.65,2.12,2.12,0,0,1-.62-1.51v-49a2.07,2.07,0,0,1,.65-1.51A2.08,2.08,0,0,1,113.25,0a2,2,0,0,1,1.55.65,2.11,2.11,0,0,1,.61,1.51Z"/><path class="cls-1" d="M129.24,11a3.26,3.26,0,0,1-2.27-.69,2.53,2.53,0,0,1-.76-2V7.63a2.44,2.44,0,0,1,.83-2A3.49,3.49,0,0,1,129.31,5a3.07,3.07,0,0,1,2.12.68,2.53,2.53,0,0,1,.76,2v.72a2.5,2.5,0,0,1-.76,2A3.13,3.13,0,0,1,129.24,11Zm2.16,40.1a2.22,2.22,0,0,1-2.16,2.16,2,2,0,0,1-1.55-.65,2.11,2.11,0,0,1-.61-1.51V18a2.11,2.11,0,0,1,.61-1.51,2.17,2.17,0,0,1,3.1,0A2.15,2.15,0,0,1,131.4,18Z"/><path class="cls-1" d="M160,15.62a13.47,13.47,0,0,1,7.6,1.91,10.72,10.72,0,0,1,4.1,5.19A20,20,0,0,1,172.94,30V51.12a2.22,2.22,0,0,1-2.16,2.16,2,2,0,0,1-1.58-.65,2.17,2.17,0,0,1-.58-1.51V30.17a14.15,14.15,0,0,0-.94-5.26,8.06,8.06,0,0,0-3.06-3.81A9.74,9.74,0,0,0,159,19.66a12.51,12.51,0,0,0-5.86,1.44,12.69,12.69,0,0,0-4.5,3.81A8.71,8.71,0,0,0,147,30.17V51.12a2.22,2.22,0,0,1-2.16,2.16,2,2,0,0,1-1.58-.65,2.17,2.17,0,0,1-.58-1.51V18.86a2.12,2.12,0,0,1,.61-1.51,2.17,2.17,0,0,1,3.1,0,2.17,2.17,0,0,1,.61,1.51v6.05l-1.66,2.59a9.34,9.34,0,0,1,1.48-4.42,15.59,15.59,0,0,1,3.42-3.82,16.57,16.57,0,0,1,4.64-2.66A14.38,14.38,0,0,1,160,15.62Z"/><path class="cls-1" d="M181.87,16.63h16.77a1.91,1.91,0,0,1,1.44.61,2.06,2.06,0,0,1,.58,1.48,1.86,1.86,0,0,1-.58,1.37,2,2,0,0,1-1.44.57H181.87a2,2,0,0,1-1.48-.61,1.91,1.91,0,0,1-.61-1.4,1.87,1.87,0,0,1,.61-1.44A2.06,2.06,0,0,1,181.87,16.63Zm7.41-10.15a2,2,0,0,1,1.55.65,2.11,2.11,0,0,1,.61,1.51V44.78a6.61,6.61,0,0,0,.54,3,2.7,2.7,0,0,0,1.41,1.33,4.77,4.77,0,0,0,1.73.32,2.87,2.87,0,0,0,1-.18,2.87,2.87,0,0,1,1-.18,1.46,1.46,0,0,1,1.12.51,1.83,1.83,0,0,1,.47,1.29,2,2,0,0,1-1.15,1.7,5.33,5.33,0,0,1-2.74.68c-.43,0-1.08,0-1.94-.11a7.18,7.18,0,0,1-2.67-.79A5.34,5.34,0,0,1,188,50a11,11,0,0,1-.9-5V8.64a2.12,2.12,0,0,1,.62-1.51A2,2,0,0,1,189.28,6.48Z"/><path class="cls-2" d="M227.52,30.91a6.72,6.72,0,0,0-2.35-2.47,6.26,6.26,0,0,0-3.35-.91s-1.47.22-1.65,1.48,1.65,1.5,1.65,1.5a3.94,3.94,0,1,1-3.95,3.94,1.19,1.19,0,0,0-1.16-1.67c-1.7-.13-1.46,1.67-1.46,1.67h0a7.21,7.21,0,0,0,.87,3.55,6.59,6.59,0,0,0,9,2.47A6.57,6.57,0,0,0,227.52,38a7.68,7.68,0,0,0,0-7.1Z"/><path class="cls-3" d="M232.33,27.92A12.24,12.24,0,0,0,228,23.37a12.13,12.13,0,0,0-12.32,0,12.14,12.14,0,0,0-4.36,4.55,13.2,13.2,0,0,0-1.6,6.56,14,14,0,0,0,.36,3.22A1.56,1.56,0,0,0,212,39.2c1.8-.27,1.28-1.5,1.28-1.5a10.22,10.22,0,0,1-.51-3.23,9.81,9.81,0,0,1,1.21-4.92,9.11,9.11,0,0,1,3.27-3.42,9.12,9.12,0,0,1,9.25,0,9.24,9.24,0,0,1,3.26,3.42,9.91,9.91,0,0,1,1.2,4.92,10,10,0,0,1-1.2,4.91,9.06,9.06,0,0,1-3.26,3.41A8.72,8.72,0,0,1,221.82,44a1.49,1.49,0,0,0-1.34,1.72c.05,1.67,1.34,1.46,1.34,1.46A11.68,11.68,0,0,0,228,45.56,12,12,0,0,0,232.33,41a13.35,13.35,0,0,0,1.6-6.53A13.31,13.31,0,0,0,232.33,27.92Z"/><path class="cls-4" d="M239.13,29.48s-.29-1.95-1.7-1.95-1.15,1.95-1.15,1.95a44.62,44.62,0,0,1,.65,5,16.57,16.57,0,0,1-2,8.15,15.08,15.08,0,0,1-5.41,5.68,15.38,15.38,0,0,1-15.38,0,14.91,14.91,0,0,1-5.43-5.68,16.57,16.57,0,0,1-2-8.15,16.55,16.55,0,0,1,2-8.18,15.09,15.09,0,0,1,5.43-5.67,14.42,14.42,0,0,1,7.68-2.09h0s1.47-.33,1.43-1.62-1.43-1.3-1.43-1.3h0a17.1,17.1,0,0,0-9.08,2.48,17.94,17.94,0,0,0-6.43,6.71,19.47,19.47,0,0,0-2.37,9.68,19.53,19.53,0,0,0,2.37,9.64,17.58,17.58,0,0,0,6.43,6.71,18.17,18.17,0,0,0,18.19,0,17.56,17.56,0,0,0,6.39-6.71,19.53,19.53,0,0,0,2.37-9.64A21.85,21.85,0,0,0,239.13,29.48Z"/></g></g></svg>